<?xml version="1.0" standalone="no"?>
<!DOCTYPE svg PUBLIC "-//W3C//DTD SVG 20010904//EN"
 "http://www.w3.org/TR/2001/REC-SVG-20010904/DTD/svg10.dtd">

<svg version="1.0" xmlns="http://www.w3.org/2000/svg"
 width="100.000000pt" height="100.000000pt" viewBox="0 0 100.000000 100.000000"
 preserveAspectRatio="xMidYMid meet">

<g transform="translate(0.000000,100.000000) scale(0.100000,-0.100000)"
fill="#ffffff" stroke="none">
<path d="M610 906 c-40 -11 -138 -104 -164 -155 -15 -29 -16 -40 -4 -102 10
-59 15 -69 33 -69 28 0 39 10 54 47 9 23 26 37 61 52 51 22 79 58 101 130 23
76 -12 118 -81 97z"/>
<path d="M226 838 c-35 -54 -28 -134 20 -229 28 -57 36 -63 107 -87 55 -18 58
-18 67 -1 12 22 13 49 1 49 -17 0 -34 60 -27 99 8 51 -13 100 -64 151 -46 46
-82 52 -104 18z"/>
<path d="M601 630 c-53 -49 -54 -50 -36 -70 13 -14 31 -20 60 -20 32 0 52 -7
80 -30 30 -24 47 -30 84 -30 55 0 125 30 141 59 30 56 -76 124 -213 136 l-62
6 -54 -51z"/>
<path d="M154 519 c-44 -10 -84 -41 -84 -65 0 -46 68 -94 158 -113 98 -20 122
-16 175 35 26 25 47 49 47 53 0 20 -38 41 -66 36 -20 -4 -39 1 -63 17 -79 53
-87 55 -167 37z"/>
<path d="M578 475 c-10 -22 -8 -29 11 -49 19 -20 22 -33 20 -82 -3 -67 11
-102 63 -152 48 -47 76 -52 106 -16 22 25 24 34 19 92 -5 43 -17 84 -39 128
-32 62 -34 64 -95 84 -77 25 -71 25 -85 -5z"/>
<path d="M503 420 c-13 -5 -23 -18 -23 -28 0 -23 -23 -44 -75 -69 -29 -13 -47
-31 -66 -68 -41 -77 -45 -107 -16 -141 l24 -28 46 18 c52 20 115 77 156 141
l28 44 -15 70 c-16 72 -20 77 -59 61z"/>
</g>
</svg>
